<?xml version="1.0" encoding="UTF-8"?>
<svg width="516px" height="107px" viewBox="0 0 516 107" version="1.1" xmlns="http://www.w3.org/2000/svg" xmlns:xlink="http://www.w3.org/1999/xlink">
    <!-- Generator: Sketch 52.6 (67491) - http://www.bohemiancoding.com/sketch -->
    <title>Group 2</title>
    <desc>Created with Sketch.</desc>
    <g id="Logo" stroke="none" stroke-width="1" fill="none" fill-rule="evenodd">
        <g id="Group-2">
            <g id="Group" transform="translate(162.000000, 7.000000)">
                <path d="M46.3764039,0 L46.3764039,52.0701754 L36.6714376,52.0701754 L10.3717197,17.2947368 L10.3346779,52.0701754 L0,52.0701754 L0,0 L9.66792446,0 L36.0046842,34.7754386 L36.0046842,0 L46.3764039,0 Z M73.2687819,15.0631579 C83.6034598,15.0631579 90.6784543,22.7621053 90.7154962,33.994386 C90.7154962,35.1101754 90.6414125,36.4491228 90.5302869,37.2673684 L65.0825317,37.2673684 C66.1197037,42.474386 69.7498056,44.7431579 74.3059539,44.7431579 C77.4174698,44.7431579 80.7882788,43.4785965 83.3812087,41.2842105 L89.0486127,47.5326316 C84.9740085,51.2891228 79.7881486,53 73.7503261,53 C62.7488948,53 55.1182724,45.4870175 55.1182724,34.1431579 C55.1182724,22.7992982 62.5266437,15.0631579 73.2687819,15.0631579 Z M73.1946982,23.4315789 C68.6385499,23.4315789 65.9715363,26.1838596 65.1195736,30.6470175 L81.0105299,30.6470175 C80.1215253,26.0350877 77.3433861,23.4315789 73.1946982,23.4315789 Z M132.276452,16.0301754 L132.276452,36.7094737 C132.276452,48.0905263 124.275411,53 115.311282,53 C106.310111,53 98.3090699,48.0905263 98.3090699,36.7094737 L98.3090699,16.0301754 L107.976994,16.0301754 L107.976994,35.8540351 C107.976994,41.6189474 111.125552,43.9621053 115.311282,43.9621053 C119.45997,43.9621053 122.645569,41.6189474 122.645569,35.8540351 L122.645569,16.0301754 L132.276452,16.0301754 Z M168.170004,16.0301754 L168.170004,24.6589474 L155.168312,24.6589474 L155.168312,37.8252632 C155.168312,42.325614 157.538991,43.9621053 160.539381,43.9621053 C162.835976,43.9621053 165.317781,42.8091228 167.280999,41.6189474 L170.837017,49.2063158 C167.688459,51.3635088 164.058357,53 158.946581,53 C150.056536,53 145.500388,47.9417544 145.500388,38.6063158 L145.500388,24.6589474 L138.57356,24.6589474 L138.57356,16.0301754 L145.500388,16.0301754 L145.500388,5.31859649 L155.168312,5.31859649 L155.168312,16.0301754 L168.170004,16.0301754 Z M196.173641,15.0631579 C198.247985,15.0631579 199.877827,15.3607018 201.211334,15.8442105 L199.766701,25.477193 C198.173901,24.7705263 195.877306,24.3242105 193.914088,24.3242105 C189.432023,24.3242105 186.357549,27.0764912 186.357549,32.4322807 L186.357549,52.0701754 L176.689625,52.0701754 L176.689625,16.0301754 L186.061214,16.0301754 L186.061214,19.9726316 C188.320768,16.5880702 191.76566,15.0631579 196.173641,15.0631579 Z M223.732777,15.0631579 C234.919418,15.0631579 243.179752,23.1712281 243.179752,34.0315789 C243.179752,44.8919298 234.919418,53 223.732777,53 C212.583179,53 204.359886,44.8919298 204.359886,34.0315789 C204.359886,23.1712281 212.583179,15.0631579 223.732777,15.0631579 Z M223.732777,24.1010526 C218.287624,24.1010526 214.21302,28.1922807 214.21302,34.0315789 C214.21302,39.8708772 218.287624,43.9621053 223.732777,43.9621053 C229.17793,43.9621053 233.289576,39.8708772 233.289576,34.0315789 C233.289576,28.1922807 229.17793,24.1010526 223.732777,24.1010526 Z M271.03522,15.0631579 C279.184429,15.0631579 285,20.7536842 285,29.1221053 L285,52.0701754 L275.332076,52.0701754 L275.332076,32.2463158 C275.332076,27.0392982 272.739146,24.1754386 268.331165,24.1754386 C264.182477,24.1754386 260.737584,26.8905263 260.737584,32.3207018 L260.737584,52.0701754 L251.06966,52.0701754 L251.06966,16.0301754 L260.478291,16.0301754 L260.478291,20.2701754 C263.034179,16.4392982 266.960616,15.0631579 271.03522,15.0631579 Z" id="Neutron" fill="#1F2532"></path>
                <path d="M18.4281621,71.8360918 L18.4281621,75.8772023 L11.8337224,75.8772023 L11.8337224,93.5125467 L7.59443971,93.5125467 L7.59443971,75.8772023 L1,75.8772023 L1,71.8360918 L18.4281621,71.8360918 Z M24.9618205,71.2012814 L24.9618205,80.1195942 C26.0102453,78.6332088 27.5752851,78.1067806 29.1859086,78.1067806 C32.5287122,78.1067806 34.9142583,80.4757074 34.9142583,83.9594234 L34.9142583,93.5125467 L30.9484778,93.5125467 L30.9484778,85.2600107 C30.9484778,83.0923652 29.8848585,81.9001602 28.0767056,81.9001602 C26.3749148,81.9001602 24.9618205,83.0304325 24.9618205,85.290977 L24.9618205,93.5125467 L20.99604,93.5125467 L20.99604,71.2012814 L24.9618205,71.2012814 Z M45.4896702,78.1067806 C49.7289529,78.1067806 52.6311142,81.3117993 52.6463087,85.9877202 C52.6463087,86.4522157 52.6159196,87.0096103 52.5703359,87.3502403 L42.1316721,87.3502403 C42.5571199,89.5178857 44.0461869,90.4623599 45.915118,90.4623599 C47.1914611,90.4623599 48.5741662,89.9359317 49.6377855,89.0224239 L51.9625534,91.6235985 C50.2911517,93.1873999 48.1639131,93.8996263 45.6871995,93.8996263 C41.1744148,93.8996263 38.0443351,90.7720235 38.0443351,86.049653 C38.0443351,81.3272824 41.0832474,78.1067806 45.4896702,78.1067806 Z M45.4592811,81.5904965 C43.59035,81.5904965 42.4963416,82.736252 42.1468667,84.5942338 L48.6653336,84.5942338 C48.3006641,82.6743193 47.161072,81.5904965 45.4592811,81.5904965 Z M67.9776173,71.8360918 L67.9776173,80.5686065 L78.2187518,80.5686065 L78.2187518,71.8360918 L82.4580344,71.8360918 L82.4580344,93.5125467 L78.2187518,93.5125467 L78.2187518,84.5942338 L67.9776173,84.5942338 L67.9776173,93.5125467 L63.7383346,93.5125467 L63.7383346,71.8360918 L67.9776173,71.8360918 Z M97.4398683,71.4335291 C101.360065,71.4335291 104.824425,73.2605446 106.556605,76.2952483 L102.90991,78.571276 C101.70954,76.697811 99.7798307,75.5830219 97.4094791,75.5830219 C93.5500605,75.5830219 90.6934829,78.4628938 90.6934829,82.6743193 C90.7086775,87.0250934 93.6564224,89.7656167 97.4094791,89.7656167 C99.7646362,89.7656167 101.679151,88.6817939 102.955494,86.7928457 L106.419854,89.3320876 C104.535729,92.1500267 101.329676,93.9151095 97.4398683,93.9151095 C90.8910122,93.9151095 86.2718655,89.1927389 86.2718655,82.6743193 C86.2718655,76.1558996 90.8910122,71.4335291 97.4398683,71.4335291 Z M121.371299,71.8360918 L129.652335,93.5125467 L125.124356,93.5125467 L123.270619,88.4650294 L114.199466,88.4650294 L112.345729,93.5125467 L107.924112,93.5125467 L116.205148,71.8360918 L121.371299,71.8360918 Z M118.74264,76.1094501 L115.658144,84.4858516 L121.811941,84.4858516 L118.74264,76.1094501 Z M139.498406,71.8360918 L148.265668,71.8360918 C154.920886,71.8360918 159.312114,76.1404164 159.312114,82.6743193 C159.312114,89.2082221 154.920886,93.5125467 148.265668,93.5125467 L139.498406,93.5125467 L139.498406,71.8360918 Z M148.220084,75.8772023 L143.737689,75.8772023 L143.737689,89.4714362 L148.220084,89.4714362 C152.70248,89.4714362 154.875302,86.6070475 154.875302,82.6743193 C154.875302,78.6951415 152.70248,75.8772023 148.220084,75.8772023 Z M169.37091,78.1067806 C173.610193,78.1067806 176.512354,81.3117993 176.527549,85.9877202 C176.527549,86.4522157 176.49716,87.0096103 176.451576,87.3502403 L166.012912,87.3502403 C166.43836,89.5178857 167.927427,90.4623599 169.796358,90.4623599 C171.072701,90.4623599 172.455406,89.9359317 173.519025,89.0224239 L175.843793,91.6235985 C174.172392,93.1873999 172.045153,93.8996263 169.568439,93.8996263 C165.055655,93.8996263 161.925575,90.7720235 161.925575,86.049653 C161.925575,81.3272824 164.964487,78.1067806 169.37091,78.1067806 Z M169.340521,81.5904965 C167.47159,81.5904965 166.377582,82.736252 166.028107,84.5942338 L172.546574,84.5942338 C172.181904,82.6743193 171.042312,81.5904965 169.340521,81.5904965 Z M191.554967,79.5467165 L190.217846,82.6898025 C189.047865,82.1014415 187.178934,81.4821143 185.522726,81.4666311 C184.018465,81.4666311 183.258737,82.0085424 183.258737,82.8291511 C183.258737,83.6962093 184.322356,83.9129738 185.659477,84.1142552 L186.96621,84.3155366 C190.157068,84.8109984 191.934831,86.2664175 191.934831,88.8056594 C191.934831,91.9022958 189.442923,93.8996263 185.173251,93.8996263 C183.167569,93.8996263 180.53891,93.5125467 178.624395,92.1345435 L180.189435,89.0688735 C181.450584,89.9204485 182.985235,90.5397758 185.203641,90.5397758 C187.042182,90.5397758 187.923467,90.0133476 187.923467,89.1308062 C187.923467,88.4030966 187.178934,88.0005339 185.477143,87.752803 L184.276772,87.582488 C180.87319,87.1025093 179.186594,85.5851575 179.186594,83.0304325 C179.186594,79.9492792 181.526557,78.1222637 185.40117,78.1222637 C187.756327,78.1222637 189.594869,78.571276 191.554967,79.5467165 Z M199.030689,78.5093433 L199.030689,93.5125467 L195.064908,93.5125467 L195.064908,78.5093433 L199.030689,78.5093433 Z M197.025007,71 C198.453296,71 199.562499,72.1457555 199.562499,73.6011746 C199.562499,75.0565937 198.453296,76.1713828 197.025007,76.1713828 C195.596718,76.1713828 194.50271,75.0565937 194.50271,73.6011746 C194.50271,72.1457555 195.596718,71 197.025007,71 Z M209.059098,78.1067806 C211.110364,78.1067806 212.614626,78.911906 213.617467,80.181527 L213.617467,78.5093433 L217.507274,78.5093433 L217.507274,92.2738922 C217.507274,97.0891618 214.422779,100 209.560519,100 C207.235751,100 204.774232,99.3806727 203.118025,98.1884677 L204.531119,94.8905499 C206.004991,95.8814736 207.630809,96.4233849 209.393379,96.4233849 C211.854898,96.4233849 213.587078,95.0298986 213.587078,92.4442072 L213.587078,91.3913508 C212.584237,92.6454885 211.09517,93.4196476 209.059098,93.4196476 C205.473182,93.4196476 202.282324,90.3694608 202.282324,85.7709557 C202.282324,81.1569674 205.473182,78.1067806 209.059098,78.1067806 Z M210.061939,81.8227443 C207.79795,81.8227443 206.354466,83.587827 206.354466,85.7709557 C206.354466,87.9386012 207.79795,89.7036839 210.061939,89.7036839 C212.265151,89.7036839 213.754218,88.0005339 213.754218,85.7709557 C213.754218,83.5258943 212.265151,81.8227443 210.061939,81.8227443 Z M229.86045,78.1067806 C233.203254,78.1067806 235.5888,80.4757074 235.5888,83.9594234 L235.5888,93.5125467 L231.623019,93.5125467 L231.623019,85.2600107 C231.623019,83.0923652 230.5594,81.9001602 228.751247,81.9001602 C227.049456,81.9001602 225.636362,83.0304325 225.636362,85.290977 L225.636362,93.5125467 L221.670581,93.5125467 L221.670581,78.5093433 L225.53,78.5093433 L225.53,80.2744261 C226.578425,78.6796583 228.189048,78.1067806 229.86045,78.1067806 Z M263.926653,73.7714896 L261.920971,77.3016551 C260.249569,76.2487987 258.213498,75.4591564 255.88873,75.4591564 C253.503184,75.4591564 251.816587,76.4191137 251.816587,78.060331 C251.816587,79.6550988 253.655129,80.1350774 256.207816,80.5686065 L257.408186,80.7698879 C261.206826,81.4046983 264.18496,83.0613988 264.18496,86.8392952 C264.18496,91.6235985 260.05204,93.8996263 255.478477,93.8996263 C252.25723,93.8996263 248.79287,92.939669 246.513685,91.066204 L248.716897,87.582488 C250.251547,88.8366257 252.75865,89.9204485 255.493671,89.9204485 C257.848828,89.9204485 259.672176,88.9759744 259.672176,87.3037907 C259.672176,85.8019221 258.12233,85.2445275 255.159391,84.7645489 L253.807075,84.5477843 C250.054018,83.9439402 247.318997,82.2562734 247.318997,78.3390283 C247.318997,73.8179391 251.269583,71.4644955 255.797562,71.4644955 C258.775696,71.4644955 261.25241,72.1457555 263.926653,73.7714896 Z M282.068956,78.5093433 L270.809786,99.7677523 L266.464141,99.7677523 L271.615098,90.3230112 L265.263771,78.5093433 L269.761361,78.5093433 L273.803115,86.219968 L277.723311,78.5093433 L282.068956,78.5093433 Z M295.820031,79.5467165 L294.48291,82.6898025 C293.312929,82.1014415 291.443998,81.4821143 289.787791,81.4666311 C288.283529,81.4666311 287.523801,82.0085424 287.523801,82.8291511 C287.523801,83.6962093 288.58742,83.9129738 289.924542,84.1142552 L291.231274,84.3155366 C294.422132,84.8109984 296.199895,86.2664175 296.199895,88.8056594 C296.199895,91.9022958 293.707987,93.8996263 289.438316,93.8996263 C287.432633,93.8996263 284.803974,93.5125467 282.88946,92.1345435 L284.454499,89.0688735 C285.715648,89.9204485 287.250299,90.5397758 289.468705,90.5397758 C291.307247,90.5397758 292.188531,90.0133476 292.188531,89.1308062 C292.188531,88.4030966 291.443998,88.0005339 289.742207,87.752803 L288.541836,87.582488 C285.138255,87.1025093 283.451658,85.5851575 283.451658,83.0304325 C283.451658,79.9492792 285.791621,78.1222637 289.666234,78.1222637 C292.021391,78.1222637 293.859933,78.571276 295.820031,79.5467165 Z M309.905387,78.5093433 L309.905387,82.1014415 L304.572096,82.1014415 L304.572096,87.582488 C304.572096,89.455953 305.544548,90.137213 306.775308,90.137213 C307.717371,90.137213 308.735406,89.6572344 309.540718,89.1617726 L310.999396,92.3203417 C309.707858,93.2183663 308.218791,93.8996263 306.121942,93.8996263 C302.475247,93.8996263 300.606316,91.7939135 300.606316,87.9076348 L300.606316,82.1014415 L297.764933,82.1014415 L297.764933,78.5093433 L300.606316,78.5093433 L300.606316,74.0501869 L304.572096,74.0501869 L304.572096,78.5093433 L309.905387,78.5093433 Z M319.751461,78.1067806 C323.990744,78.1067806 326.892905,81.3117993 326.9081,85.9877202 C326.9081,86.4522157 326.87771,87.0096103 326.832127,87.3502403 L316.393463,87.3502403 C316.818911,89.5178857 318.307978,90.4623599 320.176909,90.4623599 C321.453252,90.4623599 322.835957,89.9359317 323.899576,89.0224239 L326.224344,91.6235985 C324.552943,93.1873999 322.425704,93.8996263 319.94899,93.8996263 C315.436206,93.8996263 312.306126,90.7720235 312.306126,86.049653 C312.306126,81.3272824 315.345038,78.1067806 319.751461,78.1067806 Z M319.721072,81.5904965 C317.852141,81.5904965 316.758132,82.736252 316.408658,84.5942338 L322.927124,84.5942338 C322.562455,82.6743193 321.422863,81.5904965 319.721072,81.5904965 Z M348.195677,78.1067806 C351.660038,78.1067806 354,80.4757074 354,83.9594234 L354,93.5125467 L350.049414,93.5125467 L350.049414,85.2600107 C350.049414,83.0923652 348.9706,81.9001602 347.177642,81.9001602 C345.475851,81.9001602 344.062757,83.0304325 344.062757,85.290977 L344.062757,93.5125467 L340.096976,93.5125467 L340.096976,85.2600107 C340.096976,83.0923652 339.033357,81.9001602 337.225204,81.9001602 C335.523413,81.9001602 334.110319,83.0304325 334.110319,85.290977 L334.110319,93.5125467 L330.144538,93.5125467 L330.144538,78.5093433 L334.003957,78.5093433 L334.003957,80.2744261 C335.052382,78.6796583 336.663005,78.1067806 338.334407,78.1067806 C340.461646,78.1067806 342.20902,79.082221 343.196667,80.6769888 C344.336259,78.7725574 346.265968,78.1067806 348.195677,78.1067806 Z" id="The-HCA-Design-Syste" fill="#465561"></path>
            </g>
            <path d="M20.5919634,0 L113,92.2700086 L113,100 L105.406327,100 L12,6.73319236 L12,0 L20.5919634,0 Z M34.7905353,0 L50.1905968,0 L113,62.187528 L113,77.4351135 L34.7905353,0 Z M90.2094647,100 L74.8094032,100 L12,37.812472 L12,22.5648865 L90.2094647,100 Z M17.5,100 C7.83501688,100 -1.56319402e-13,92.1649831 -1.56319402e-13,82.5 C-1.56319402e-13,72.8350169 7.83501688,65 17.5,65 C27.1649831,65 35,72.8350169 35,82.5 C35,92.1649831 27.1649831,100 17.5,100 Z M76,7 L126,7 L126,57 L76,7 Z M103.272727,18.3636364 L114.636364,29.7272727 L114.636364,18.3636364 L103.272727,18.3636364 Z" id="Combined-Shape-Copy-2" fill="#1F2532"></path>
        </g>
    </g>
</svg>